<mxfile host="www.draw.io" modified="2019-11-08T04:40:02.553Z" agent="Mozilla/5.0 (Windows NT 10.0; Win64; x64) AppleWebKit/537.36 (KHTML, like Gecko) Chrome/78.0.3904.87 Safari/537.36" etag="VoocUMIsU1xsuDgGgHJI" version="12.2.2" type="github" pages="1">
  <diagram id="uQoPsyggOL1_r7nGYhY_" name="Page-1">
    <mxGraphModel dx="1643" dy="747" grid="1" gridSize="10" guides="1" tooltips="1" connect="1" arrows="1" fold="1" page="1" pageScale="1" pageWidth="1100" pageHeight="850" math="0" shadow="0">
      <root>
        <mxCell id="0"/>
        <mxCell id="1" parent="0"/>
        <mxCell id="UQCRdyQTEKRcxBoQZrcR-17" value="«interface»&lt;br&gt;&lt;b&gt;Plot&lt;/b&gt;" style="swimlane;fontStyle=1;align=center;verticalAlign=top;childLayout=stackLayout;horizontal=1;startSize=40;horizontalStack=0;resizeParent=1;resizeParentMax=0;resizeLast=0;collapsible=1;marginBottom=0;html=1;collapsible=1;swimlaneLine=1;" parent="1" vertex="1">
          <mxGeometry x="455" y="260" width="160" height="92" as="geometry"/>
        </mxCell>
        <mxCell id="UQCRdyQTEKRcxBoQZrcR-18" value="+ perimeter(): double" style="text;strokeColor=none;fillColor=none;align=left;verticalAlign=top;spacingLeft=4;spacingRight=4;overflow=hidden;rotatable=0;points=[[0,0.5],[1,0.5]];portConstraint=eastwest;" parent="UQCRdyQTEKRcxBoQZrcR-17" vertex="1">
          <mxGeometry y="40" width="160" height="26" as="geometry"/>
        </mxCell>
        <mxCell id="UQCRdyQTEKRcxBoQZrcR-19" value="+ area(): double" style="text;strokeColor=none;fillColor=none;align=left;verticalAlign=top;spacingLeft=4;spacingRight=4;overflow=hidden;rotatable=0;points=[[0,0.5],[1,0.5]];portConstraint=eastwest;" parent="UQCRdyQTEKRcxBoQZrcR-17" vertex="1">
          <mxGeometry y="66" width="160" height="26" as="geometry"/>
        </mxCell>
        <mxCell id="UQCRdyQTEKRcxBoQZrcR-20" value="RegPlot" style="swimlane;fontStyle=1;align=center;verticalAlign=top;childLayout=stackLayout;horizontal=1;startSize=26;horizontalStack=0;resizeParent=1;resizeParentMax=0;resizeLast=0;collapsible=1;marginBottom=0;" parent="1" vertex="1">
          <mxGeometry x="290" y="440" width="190" height="112" as="geometry"/>
        </mxCell>
        <mxCell id="UQCRdyQTEKRcxBoQZrcR-55" value="- sides [] : double" style="text;strokeColor=none;fillColor=none;align=left;verticalAlign=top;spacingLeft=4;spacingRight=4;overflow=hidden;rotatable=0;points=[[0,0.5],[1,0.5]];portConstraint=eastwest;" parent="UQCRdyQTEKRcxBoQZrcR-20" vertex="1">
          <mxGeometry y="26" width="190" height="26" as="geometry"/>
        </mxCell>
        <mxCell id="UQCRdyQTEKRcxBoQZrcR-22" value="" style="line;strokeWidth=1;fillColor=none;align=left;verticalAlign=middle;spacingTop=-1;spacingLeft=3;spacingRight=3;rotatable=0;labelPosition=right;points=[];portConstraint=eastwest;" parent="UQCRdyQTEKRcxBoQZrcR-20" vertex="1">
          <mxGeometry y="52" width="190" height="8" as="geometry"/>
        </mxCell>
        <mxCell id="UQCRdyQTEKRcxBoQZrcR-44" value="+ perimeter(double []): double" style="text;strokeColor=none;fillColor=none;align=left;verticalAlign=top;spacingLeft=4;spacingRight=4;overflow=hidden;rotatable=0;points=[[0,0.5],[1,0.5]];portConstraint=eastwest;" parent="UQCRdyQTEKRcxBoQZrcR-20" vertex="1">
          <mxGeometry y="60" width="190" height="26" as="geometry"/>
        </mxCell>
        <mxCell id="UQCRdyQTEKRcxBoQZrcR-23" value="+ area(): double" style="text;strokeColor=none;fillColor=none;align=left;verticalAlign=top;spacingLeft=4;spacingRight=4;overflow=hidden;rotatable=0;points=[[0,0.5],[1,0.5]];portConstraint=eastwest;" parent="UQCRdyQTEKRcxBoQZrcR-20" vertex="1">
          <mxGeometry y="86" width="190" height="26" as="geometry"/>
        </mxCell>
        <mxCell id="UQCRdyQTEKRcxBoQZrcR-38" value="«interface»&#xa;Yield" style="swimlane;fontStyle=1;align=center;verticalAlign=top;childLayout=stackLayout;horizontal=1;startSize=42;horizontalStack=0;resizeParent=1;resizeParentMax=0;resizeLast=0;collapsible=1;marginBottom=0;" parent="1" vertex="1">
          <mxGeometry x="1370" y="278" width="160" height="76" as="geometry"/>
        </mxCell>
        <mxCell id="UQCRdyQTEKRcxBoQZrcR-42" value="" style="line;strokeWidth=1;fillColor=none;align=left;verticalAlign=middle;spacingTop=-1;spacingLeft=3;spacingRight=3;rotatable=0;labelPosition=right;points=[];portConstraint=eastwest;" parent="UQCRdyQTEKRcxBoQZrcR-38" vertex="1">
          <mxGeometry y="42" width="160" height="8" as="geometry"/>
        </mxCell>
        <mxCell id="UQCRdyQTEKRcxBoQZrcR-43" value="+ calcYield(): double" style="text;strokeColor=none;fillColor=none;align=left;verticalAlign=top;spacingLeft=4;spacingRight=4;overflow=hidden;rotatable=0;points=[[0,0.5],[1,0.5]];portConstraint=eastwest;" parent="UQCRdyQTEKRcxBoQZrcR-38" vertex="1">
          <mxGeometry y="50" width="160" height="26" as="geometry"/>
        </mxCell>
        <mxCell id="UQCRdyQTEKRcxBoQZrcR-45" value="" style="endArrow=block;dashed=1;endFill=0;endSize=12;html=1;exitX=0.561;exitY=-0.012;exitDx=0;exitDy=0;exitPerimeter=0;entryX=0.156;entryY=0.962;entryDx=0;entryDy=0;entryPerimeter=0;" parent="1" source="UQCRdyQTEKRcxBoQZrcR-20" target="UQCRdyQTEKRcxBoQZrcR-19" edge="1">
          <mxGeometry width="160" relative="1" as="geometry">
            <mxPoint x="665" y="396" as="sourcePoint"/>
            <mxPoint x="330" y="357" as="targetPoint"/>
          </mxGeometry>
        </mxCell>
        <mxCell id="UQCRdyQTEKRcxBoQZrcR-46" value="SquarePlot" style="swimlane;fontStyle=1;align=center;verticalAlign=top;childLayout=stackLayout;horizontal=1;startSize=26;horizontalStack=0;resizeParent=1;resizeParentMax=0;resizeLast=0;collapsible=1;marginBottom=0;" parent="1" vertex="1">
          <mxGeometry x="90" y="680" width="160" height="60" as="geometry"/>
        </mxCell>
        <mxCell id="UQCRdyQTEKRcxBoQZrcR-48" value="" style="line;strokeWidth=1;fillColor=none;align=left;verticalAlign=middle;spacingTop=-1;spacingLeft=3;spacingRight=3;rotatable=0;labelPosition=right;points=[];portConstraint=eastwest;" parent="UQCRdyQTEKRcxBoQZrcR-46" vertex="1">
          <mxGeometry y="26" width="160" height="8" as="geometry"/>
        </mxCell>
        <mxCell id="UQCRdyQTEKRcxBoQZrcR-50" value="- area(): double" style="text;strokeColor=none;fillColor=none;align=left;verticalAlign=top;spacingLeft=4;spacingRight=4;overflow=hidden;rotatable=0;points=[[0,0.5],[1,0.5]];portConstraint=eastwest;" parent="UQCRdyQTEKRcxBoQZrcR-46" vertex="1">
          <mxGeometry y="34" width="160" height="26" as="geometry"/>
        </mxCell>
        <mxCell id="UQCRdyQTEKRcxBoQZrcR-51" value="RectanglePlot" style="swimlane;fontStyle=1;align=center;verticalAlign=top;childLayout=stackLayout;horizontal=1;startSize=26;horizontalStack=0;resizeParent=1;resizeParentMax=0;resizeLast=0;collapsible=1;marginBottom=0;" parent="1" vertex="1">
          <mxGeometry x="270" y="680" width="160" height="60" as="geometry"/>
        </mxCell>
        <mxCell id="UQCRdyQTEKRcxBoQZrcR-52" value="" style="line;strokeWidth=1;fillColor=none;align=left;verticalAlign=middle;spacingTop=-1;spacingLeft=3;spacingRight=3;rotatable=0;labelPosition=right;points=[];portConstraint=eastwest;" parent="UQCRdyQTEKRcxBoQZrcR-51" vertex="1">
          <mxGeometry y="26" width="160" height="8" as="geometry"/>
        </mxCell>
        <mxCell id="UQCRdyQTEKRcxBoQZrcR-54" value="- area(): double" style="text;strokeColor=none;fillColor=none;align=left;verticalAlign=top;spacingLeft=4;spacingRight=4;overflow=hidden;rotatable=0;points=[[0,0.5],[1,0.5]];portConstraint=eastwest;" parent="UQCRdyQTEKRcxBoQZrcR-51" vertex="1">
          <mxGeometry y="34" width="160" height="26" as="geometry"/>
        </mxCell>
        <mxCell id="UQCRdyQTEKRcxBoQZrcR-56" value="CirclePlot" style="swimlane;fontStyle=1;align=center;verticalAlign=top;childLayout=stackLayout;horizontal=1;startSize=26;horizontalStack=0;resizeParent=1;resizeParentMax=0;resizeLast=0;collapsible=1;marginBottom=0;" parent="1" vertex="1">
          <mxGeometry x="650" y="680" width="160" height="86" as="geometry"/>
        </mxCell>
        <mxCell id="UQCRdyQTEKRcxBoQZrcR-57" value="" style="line;strokeWidth=1;fillColor=none;align=left;verticalAlign=middle;spacingTop=-1;spacingLeft=3;spacingRight=3;rotatable=0;labelPosition=right;points=[];portConstraint=eastwest;" parent="UQCRdyQTEKRcxBoQZrcR-56" vertex="1">
          <mxGeometry y="26" width="160" height="8" as="geometry"/>
        </mxCell>
        <mxCell id="UQCRdyQTEKRcxBoQZrcR-58" value="- area(): double" style="text;strokeColor=none;fillColor=none;align=left;verticalAlign=top;spacingLeft=4;spacingRight=4;overflow=hidden;rotatable=0;points=[[0,0.5],[1,0.5]];portConstraint=eastwest;" parent="UQCRdyQTEKRcxBoQZrcR-56" vertex="1">
          <mxGeometry y="34" width="160" height="26" as="geometry"/>
        </mxCell>
        <mxCell id="UQCRdyQTEKRcxBoQZrcR-78" value="- perimeter(): double" style="text;strokeColor=none;fillColor=none;align=left;verticalAlign=top;spacingLeft=4;spacingRight=4;overflow=hidden;rotatable=0;points=[[0,0.5],[1,0.5]];portConstraint=eastwest;" parent="UQCRdyQTEKRcxBoQZrcR-56" vertex="1">
          <mxGeometry y="60" width="160" height="26" as="geometry"/>
        </mxCell>
        <mxCell id="UQCRdyQTEKRcxBoQZrcR-59" value="EllipsesPlot" style="swimlane;fontStyle=1;align=center;verticalAlign=top;childLayout=stackLayout;horizontal=1;startSize=26;horizontalStack=0;resizeParent=1;resizeParentMax=0;resizeLast=0;collapsible=1;marginBottom=0;" parent="1" vertex="1">
          <mxGeometry x="830" y="680" width="160" height="86" as="geometry"/>
        </mxCell>
        <mxCell id="UQCRdyQTEKRcxBoQZrcR-60" value="" style="line;strokeWidth=1;fillColor=none;align=left;verticalAlign=middle;spacingTop=-1;spacingLeft=3;spacingRight=3;rotatable=0;labelPosition=right;points=[];portConstraint=eastwest;" parent="UQCRdyQTEKRcxBoQZrcR-59" vertex="1">
          <mxGeometry y="26" width="160" height="8" as="geometry"/>
        </mxCell>
        <mxCell id="UQCRdyQTEKRcxBoQZrcR-61" value="- area(): double" style="text;strokeColor=none;fillColor=none;align=left;verticalAlign=top;spacingLeft=4;spacingRight=4;overflow=hidden;rotatable=0;points=[[0,0.5],[1,0.5]];portConstraint=eastwest;" parent="UQCRdyQTEKRcxBoQZrcR-59" vertex="1">
          <mxGeometry y="34" width="160" height="26" as="geometry"/>
        </mxCell>
        <mxCell id="UQCRdyQTEKRcxBoQZrcR-79" value="- perimeter(): double" style="text;strokeColor=none;fillColor=none;align=left;verticalAlign=top;spacingLeft=4;spacingRight=4;overflow=hidden;rotatable=0;points=[[0,0.5],[1,0.5]];portConstraint=eastwest;" parent="UQCRdyQTEKRcxBoQZrcR-59" vertex="1">
          <mxGeometry y="60" width="160" height="26" as="geometry"/>
        </mxCell>
        <mxCell id="UQCRdyQTEKRcxBoQZrcR-62" value="OctagonPlot" style="swimlane;fontStyle=1;align=center;verticalAlign=top;childLayout=stackLayout;horizontal=1;startSize=26;horizontalStack=0;resizeParent=1;resizeParentMax=0;resizeLast=0;collapsible=1;marginBottom=0;" parent="1" vertex="1">
          <mxGeometry x="450" y="680" width="160" height="60" as="geometry"/>
        </mxCell>
        <mxCell id="UQCRdyQTEKRcxBoQZrcR-63" value="" style="line;strokeWidth=1;fillColor=none;align=left;verticalAlign=middle;spacingTop=-1;spacingLeft=3;spacingRight=3;rotatable=0;labelPosition=right;points=[];portConstraint=eastwest;" parent="UQCRdyQTEKRcxBoQZrcR-62" vertex="1">
          <mxGeometry y="26" width="160" height="8" as="geometry"/>
        </mxCell>
        <mxCell id="UQCRdyQTEKRcxBoQZrcR-64" value="- area(): double" style="text;strokeColor=none;fillColor=none;align=left;verticalAlign=top;spacingLeft=4;spacingRight=4;overflow=hidden;rotatable=0;points=[[0,0.5],[1,0.5]];portConstraint=eastwest;" parent="UQCRdyQTEKRcxBoQZrcR-62" vertex="1">
          <mxGeometry y="34" width="160" height="26" as="geometry"/>
        </mxCell>
        <mxCell id="UQCRdyQTEKRcxBoQZrcR-65" value="ConicPlot" style="swimlane;fontStyle=1;align=center;verticalAlign=top;childLayout=stackLayout;horizontal=1;startSize=26;horizontalStack=0;resizeParent=1;resizeParentMax=0;resizeLast=0;collapsible=1;marginBottom=0;" parent="1" vertex="1">
          <mxGeometry x="640" y="440" width="190" height="86" as="geometry"/>
        </mxCell>
        <mxCell id="UQCRdyQTEKRcxBoQZrcR-68" value="" style="line;strokeWidth=1;fillColor=none;align=left;verticalAlign=middle;spacingTop=-1;spacingLeft=3;spacingRight=3;rotatable=0;labelPosition=right;points=[];portConstraint=eastwest;" parent="UQCRdyQTEKRcxBoQZrcR-65" vertex="1">
          <mxGeometry y="26" width="190" height="8" as="geometry"/>
        </mxCell>
        <mxCell id="UQCRdyQTEKRcxBoQZrcR-69" value="+ perimeter(): double" style="text;strokeColor=none;fillColor=none;align=left;verticalAlign=top;spacingLeft=4;spacingRight=4;overflow=hidden;rotatable=0;points=[[0,0.5],[1,0.5]];portConstraint=eastwest;" parent="UQCRdyQTEKRcxBoQZrcR-65" vertex="1">
          <mxGeometry y="34" width="190" height="26" as="geometry"/>
        </mxCell>
        <mxCell id="UQCRdyQTEKRcxBoQZrcR-70" value="+ area(): double" style="text;strokeColor=none;fillColor=none;align=left;verticalAlign=top;spacingLeft=4;spacingRight=4;overflow=hidden;rotatable=0;points=[[0,0.5],[1,0.5]];portConstraint=eastwest;" parent="UQCRdyQTEKRcxBoQZrcR-65" vertex="1">
          <mxGeometry y="60" width="190" height="26" as="geometry"/>
        </mxCell>
        <mxCell id="UQCRdyQTEKRcxBoQZrcR-71" value="" style="endArrow=block;dashed=1;endFill=0;endSize=12;html=1;exitX=0.216;exitY=-0.014;exitDx=0;exitDy=0;exitPerimeter=0;entryX=0.825;entryY=1.038;entryDx=0;entryDy=0;entryPerimeter=0;" parent="1" source="UQCRdyQTEKRcxBoQZrcR-65" target="UQCRdyQTEKRcxBoQZrcR-19" edge="1">
          <mxGeometry width="160" relative="1" as="geometry">
            <mxPoint x="406.5899999999999" y="448.34400000000005" as="sourcePoint"/>
            <mxPoint x="750" y="350" as="targetPoint"/>
          </mxGeometry>
        </mxCell>
        <mxCell id="UQCRdyQTEKRcxBoQZrcR-72" value="" style="endArrow=block;dashed=1;endFill=0;endSize=12;html=1;exitX=0.863;exitY=-0.05;exitDx=0;exitDy=0;exitPerimeter=0;entryX=0.084;entryY=1.154;entryDx=0;entryDy=0;entryPerimeter=0;" parent="1" source="UQCRdyQTEKRcxBoQZrcR-46" target="UQCRdyQTEKRcxBoQZrcR-23" edge="1">
          <mxGeometry width="160" relative="1" as="geometry">
            <mxPoint x="166.58999999999992" y="665.344" as="sourcePoint"/>
            <mxPoint x="249.96000000000004" y="578.012" as="targetPoint"/>
          </mxGeometry>
        </mxCell>
        <mxCell id="UQCRdyQTEKRcxBoQZrcR-73" value="" style="endArrow=block;dashed=1;endFill=0;endSize=12;html=1;exitX=0.556;exitY=-0.033;exitDx=0;exitDy=0;exitPerimeter=0;entryX=0.463;entryY=1.308;entryDx=0;entryDy=0;entryPerimeter=0;" parent="1" source="UQCRdyQTEKRcxBoQZrcR-51" target="UQCRdyQTEKRcxBoQZrcR-23" edge="1">
          <mxGeometry width="160" relative="1" as="geometry">
            <mxPoint x="238.07999999999993" y="687" as="sourcePoint"/>
            <mxPoint x="315.96000000000004" y="592.0039999999999" as="targetPoint"/>
          </mxGeometry>
        </mxCell>
        <mxCell id="UQCRdyQTEKRcxBoQZrcR-75" value="" style="endArrow=block;dashed=1;endFill=0;endSize=12;html=1;exitX=0.175;exitY=-0.05;exitDx=0;exitDy=0;exitPerimeter=0;entryX=0.768;entryY=1.269;entryDx=0;entryDy=0;entryPerimeter=0;" parent="1" source="UQCRdyQTEKRcxBoQZrcR-62" target="UQCRdyQTEKRcxBoQZrcR-23" edge="1">
          <mxGeometry width="160" relative="1" as="geometry">
            <mxPoint x="388.96000000000004" y="688.02" as="sourcePoint"/>
            <mxPoint x="387.97" y="596.008" as="targetPoint"/>
          </mxGeometry>
        </mxCell>
        <mxCell id="UQCRdyQTEKRcxBoQZrcR-76" value="" style="endArrow=block;dashed=1;endFill=0;endSize=12;html=1;exitX=0.356;exitY=-0.067;exitDx=0;exitDy=0;exitPerimeter=0;entryX=0.3;entryY=1.269;entryDx=0;entryDy=0;entryPerimeter=0;" parent="1" source="UQCRdyQTEKRcxBoQZrcR-56" target="UQCRdyQTEKRcxBoQZrcR-70" edge="1">
          <mxGeometry width="160" relative="1" as="geometry">
            <mxPoint x="528" y="687" as="sourcePoint"/>
            <mxPoint x="445.9200000000001" y="594.9939999999999" as="targetPoint"/>
          </mxGeometry>
        </mxCell>
        <mxCell id="UQCRdyQTEKRcxBoQZrcR-77" value="" style="endArrow=block;dashed=1;endFill=0;endSize=12;html=1;exitX=0.381;exitY=-0.033;exitDx=0;exitDy=0;exitPerimeter=0;entryX=0.784;entryY=1;entryDx=0;entryDy=0;entryPerimeter=0;" parent="1" source="UQCRdyQTEKRcxBoQZrcR-59" target="UQCRdyQTEKRcxBoQZrcR-70" edge="1">
          <mxGeometry width="160" relative="1" as="geometry">
            <mxPoint x="776.96" y="685.98" as="sourcePoint"/>
            <mxPoint x="707" y="568.9939999999999" as="targetPoint"/>
          </mxGeometry>
        </mxCell>
        <mxCell id="UQCRdyQTEKRcxBoQZrcR-84" value="YieldSoybeanCommand" style="swimlane;fontStyle=1;align=center;verticalAlign=top;childLayout=stackLayout;horizontal=1;startSize=26;horizontalStack=0;resizeParent=1;resizeParentMax=0;resizeLast=0;collapsible=1;marginBottom=0;" parent="1" vertex="1">
          <mxGeometry x="1620" y="522" width="160" height="60" as="geometry"/>
        </mxCell>
        <mxCell id="UQCRdyQTEKRcxBoQZrcR-87" value="" style="line;strokeWidth=1;fillColor=none;align=left;verticalAlign=middle;spacingTop=-1;spacingLeft=3;spacingRight=3;rotatable=0;labelPosition=right;points=[];portConstraint=eastwest;" parent="UQCRdyQTEKRcxBoQZrcR-84" vertex="1">
          <mxGeometry y="26" width="160" height="8" as="geometry"/>
        </mxCell>
        <mxCell id="UQCRdyQTEKRcxBoQZrcR-88" value="+ calcYield(): double" style="text;strokeColor=none;fillColor=none;align=left;verticalAlign=top;spacingLeft=4;spacingRight=4;overflow=hidden;rotatable=0;points=[[0,0.5],[1,0.5]];portConstraint=eastwest;" parent="UQCRdyQTEKRcxBoQZrcR-84" vertex="1">
          <mxGeometry y="34" width="160" height="26" as="geometry"/>
        </mxCell>
        <mxCell id="UQCRdyQTEKRcxBoQZrcR-92" value="YieldCornCommand" style="swimlane;fontStyle=1;align=center;verticalAlign=top;childLayout=stackLayout;horizontal=1;startSize=26;horizontalStack=0;resizeParent=1;resizeParentMax=0;resizeLast=0;collapsible=1;marginBottom=0;" parent="1" vertex="1">
          <mxGeometry x="1450" y="522" width="160" height="60" as="geometry"/>
        </mxCell>
        <mxCell id="UQCRdyQTEKRcxBoQZrcR-93" value="" style="line;strokeWidth=1;fillColor=none;align=left;verticalAlign=middle;spacingTop=-1;spacingLeft=3;spacingRight=3;rotatable=0;labelPosition=right;points=[];portConstraint=eastwest;" parent="UQCRdyQTEKRcxBoQZrcR-92" vertex="1">
          <mxGeometry y="26" width="160" height="8" as="geometry"/>
        </mxCell>
        <mxCell id="UQCRdyQTEKRcxBoQZrcR-94" value="+ calcYield(): double" style="text;strokeColor=none;fillColor=none;align=left;verticalAlign=top;spacingLeft=4;spacingRight=4;overflow=hidden;rotatable=0;points=[[0,0.5],[1,0.5]];portConstraint=eastwest;" parent="UQCRdyQTEKRcxBoQZrcR-92" vertex="1">
          <mxGeometry y="34" width="160" height="26" as="geometry"/>
        </mxCell>
        <mxCell id="UQCRdyQTEKRcxBoQZrcR-95" value="YieldHempCommand" style="swimlane;fontStyle=1;align=center;verticalAlign=top;childLayout=stackLayout;horizontal=1;startSize=26;horizontalStack=0;resizeParent=1;resizeParentMax=0;resizeLast=0;collapsible=1;marginBottom=0;" parent="1" vertex="1">
          <mxGeometry x="1280" y="522" width="160" height="60" as="geometry"/>
        </mxCell>
        <mxCell id="UQCRdyQTEKRcxBoQZrcR-96" value="" style="line;strokeWidth=1;fillColor=none;align=left;verticalAlign=middle;spacingTop=-1;spacingLeft=3;spacingRight=3;rotatable=0;labelPosition=right;points=[];portConstraint=eastwest;" parent="UQCRdyQTEKRcxBoQZrcR-95" vertex="1">
          <mxGeometry y="26" width="160" height="8" as="geometry"/>
        </mxCell>
        <mxCell id="UQCRdyQTEKRcxBoQZrcR-97" value="+ calcYield(): double" style="text;strokeColor=none;fillColor=none;align=left;verticalAlign=top;spacingLeft=4;spacingRight=4;overflow=hidden;rotatable=0;points=[[0,0.5],[1,0.5]];portConstraint=eastwest;" parent="UQCRdyQTEKRcxBoQZrcR-95" vertex="1">
          <mxGeometry y="34" width="160" height="26" as="geometry"/>
        </mxCell>
        <mxCell id="UQCRdyQTEKRcxBoQZrcR-98" value="YieldWheatCommand" style="swimlane;fontStyle=1;align=center;verticalAlign=top;childLayout=stackLayout;horizontal=1;startSize=26;horizontalStack=0;resizeParent=1;resizeParentMax=0;resizeLast=0;collapsible=1;marginBottom=0;" parent="1" vertex="1">
          <mxGeometry x="1110" y="522" width="160" height="60" as="geometry"/>
        </mxCell>
        <mxCell id="UQCRdyQTEKRcxBoQZrcR-99" value="" style="line;strokeWidth=1;fillColor=none;align=left;verticalAlign=middle;spacingTop=-1;spacingLeft=3;spacingRight=3;rotatable=0;labelPosition=right;points=[];portConstraint=eastwest;" parent="UQCRdyQTEKRcxBoQZrcR-98" vertex="1">
          <mxGeometry y="26" width="160" height="8" as="geometry"/>
        </mxCell>
        <mxCell id="UQCRdyQTEKRcxBoQZrcR-100" value="+ calcYield(): double" style="text;strokeColor=none;fillColor=none;align=left;verticalAlign=top;spacingLeft=4;spacingRight=4;overflow=hidden;rotatable=0;points=[[0,0.5],[1,0.5]];portConstraint=eastwest;" parent="UQCRdyQTEKRcxBoQZrcR-98" vertex="1">
          <mxGeometry y="34" width="160" height="26" as="geometry"/>
        </mxCell>
        <mxCell id="UQCRdyQTEKRcxBoQZrcR-101" value="" style="endArrow=block;dashed=1;endFill=0;endSize=12;html=1;entryX=0.042;entryY=1.16;entryDx=0;entryDy=0;entryPerimeter=0;exitX=0.598;exitY=-0.027;exitDx=0;exitDy=0;exitPerimeter=0;" parent="1" source="UQCRdyQTEKRcxBoQZrcR-98" target="UQCRdyQTEKRcxBoQZrcR-43" edge="1">
          <mxGeometry width="160" relative="1" as="geometry">
            <mxPoint x="1240" y="502" as="sourcePoint"/>
            <mxPoint x="1290" y="612.008" as="targetPoint"/>
          </mxGeometry>
        </mxCell>
        <mxCell id="UQCRdyQTEKRcxBoQZrcR-102" value="" style="endArrow=block;dashed=1;endFill=0;endSize=12;html=1;exitX=0.392;exitY=-0.012;exitDx=0;exitDy=0;exitPerimeter=0;entryX=0.272;entryY=1.246;entryDx=0;entryDy=0;entryPerimeter=0;" parent="1" source="UQCRdyQTEKRcxBoQZrcR-95" target="UQCRdyQTEKRcxBoQZrcR-43" edge="1">
          <mxGeometry width="160" relative="1" as="geometry">
            <mxPoint x="1370.96" y="734.98" as="sourcePoint"/>
            <mxPoint x="1300.0800000000004" y="578.9879999999998" as="targetPoint"/>
          </mxGeometry>
        </mxCell>
        <mxCell id="UQCRdyQTEKRcxBoQZrcR-103" value="" style="endArrow=block;dashed=1;endFill=0;endSize=12;html=1;exitX=0.452;exitY=0.029;exitDx=0;exitDy=0;exitPerimeter=0;entryX=0.625;entryY=1.154;entryDx=0;entryDy=0;entryPerimeter=0;" parent="1" source="UQCRdyQTEKRcxBoQZrcR-92" target="UQCRdyQTEKRcxBoQZrcR-43" edge="1">
          <mxGeometry width="160" relative="1" as="geometry">
            <mxPoint x="1370.96" y="662.98" as="sourcePoint"/>
            <mxPoint x="1470" y="412" as="targetPoint"/>
          </mxGeometry>
        </mxCell>
        <mxCell id="UQCRdyQTEKRcxBoQZrcR-104" value="" style="endArrow=block;dashed=1;endFill=0;endSize=12;html=1;exitX=0.542;exitY=-0.045;exitDx=0;exitDy=0;entryX=0.876;entryY=1.16;entryDx=0;entryDy=0;entryPerimeter=0;exitPerimeter=0;" parent="1" source="UQCRdyQTEKRcxBoQZrcR-84" target="UQCRdyQTEKRcxBoQZrcR-43" edge="1">
          <mxGeometry width="160" relative="1" as="geometry">
            <mxPoint x="1374" y="586" as="sourcePoint"/>
            <mxPoint x="1302.96" y="526.9959999999999" as="targetPoint"/>
          </mxGeometry>
        </mxCell>
        <mxCell id="UQCRdyQTEKRcxBoQZrcR-118" value="Farming" style="swimlane;fontStyle=1;align=center;verticalAlign=top;childLayout=stackLayout;horizontal=1;startSize=26;horizontalStack=0;resizeParent=1;resizeParentMax=0;resizeLast=0;collapsible=1;marginBottom=0;" parent="1" vertex="1">
          <mxGeometry x="860" y="267.5" width="190" height="190" as="geometry"/>
        </mxCell>
        <mxCell id="UQCRdyQTEKRcxBoQZrcR-119" value="- plot : Plot" style="text;strokeColor=none;fillColor=none;align=left;verticalAlign=top;spacingLeft=4;spacingRight=4;overflow=hidden;rotatable=0;points=[[0,0.5],[1,0.5]];portConstraint=eastwest;" parent="UQCRdyQTEKRcxBoQZrcR-118" vertex="1">
          <mxGeometry y="26" width="190" height="26" as="geometry"/>
        </mxCell>
        <mxCell id="UQCRdyQTEKRcxBoQZrcR-123" value="- yield : Yield" style="text;strokeColor=none;fillColor=none;align=left;verticalAlign=top;spacingLeft=4;spacingRight=4;overflow=hidden;rotatable=0;points=[[0,0.5],[1,0.5]];portConstraint=eastwest;" parent="UQCRdyQTEKRcxBoQZrcR-118" vertex="1">
          <mxGeometry y="52" width="190" height="26" as="geometry"/>
        </mxCell>
        <mxCell id="icalWWF1daYBHl1hUkGM-2" value="- crop: Crop" style="text;strokeColor=none;fillColor=none;align=left;verticalAlign=top;spacingLeft=4;spacingRight=4;overflow=hidden;rotatable=0;points=[[0,0.5],[1,0.5]];portConstraint=eastwest;" vertex="1" parent="UQCRdyQTEKRcxBoQZrcR-118">
          <mxGeometry y="78" width="190" height="26" as="geometry"/>
        </mxCell>
        <mxCell id="UQCRdyQTEKRcxBoQZrcR-120" value="" style="line;strokeWidth=1;fillColor=none;align=left;verticalAlign=middle;spacingTop=-1;spacingLeft=3;spacingRight=3;rotatable=0;labelPosition=right;points=[];portConstraint=eastwest;" parent="UQCRdyQTEKRcxBoQZrcR-118" vertex="1">
          <mxGeometry y="104" width="190" height="8" as="geometry"/>
        </mxCell>
        <mxCell id="UQCRdyQTEKRcxBoQZrcR-121" value="+ area(): double" style="text;strokeColor=none;fillColor=none;align=left;verticalAlign=top;spacingLeft=4;spacingRight=4;overflow=hidden;rotatable=0;points=[[0,0.5],[1,0.5]];portConstraint=eastwest;" parent="UQCRdyQTEKRcxBoQZrcR-118" vertex="1">
          <mxGeometry y="112" width="190" height="26" as="geometry"/>
        </mxCell>
        <mxCell id="UQCRdyQTEKRcxBoQZrcR-124" value="+ perimeter(): double" style="text;strokeColor=none;fillColor=none;align=left;verticalAlign=top;spacingLeft=4;spacingRight=4;overflow=hidden;rotatable=0;points=[[0,0.5],[1,0.5]];portConstraint=eastwest;" parent="UQCRdyQTEKRcxBoQZrcR-118" vertex="1">
          <mxGeometry y="138" width="190" height="26" as="geometry"/>
        </mxCell>
        <mxCell id="UQCRdyQTEKRcxBoQZrcR-122" value="+ calcYield(): double" style="text;strokeColor=none;fillColor=none;align=left;verticalAlign=top;spacingLeft=4;spacingRight=4;overflow=hidden;rotatable=0;points=[[0,0.5],[1,0.5]];portConstraint=eastwest;" parent="UQCRdyQTEKRcxBoQZrcR-118" vertex="1">
          <mxGeometry y="164" width="190" height="26" as="geometry"/>
        </mxCell>
        <mxCell id="UQCRdyQTEKRcxBoQZrcR-125" value="" style="endArrow=diamondThin;endFill=1;endSize=24;html=1;exitX=1.031;exitY=0.231;exitDx=0;exitDy=0;exitPerimeter=0;entryX=0;entryY=0.5;entryDx=0;entryDy=0;" parent="1" source="UQCRdyQTEKRcxBoQZrcR-18" target="UQCRdyQTEKRcxBoQZrcR-119" edge="1">
          <mxGeometry width="160" relative="1" as="geometry">
            <mxPoint x="655" y="306" as="sourcePoint"/>
            <mxPoint x="815" y="306" as="targetPoint"/>
          </mxGeometry>
        </mxCell>
        <mxCell id="UQCRdyQTEKRcxBoQZrcR-126" value="" style="endArrow=diamondThin;endFill=1;endSize=24;html=1;exitX=-0.027;exitY=0.109;exitDx=0;exitDy=0;exitPerimeter=0;entryX=1;entryY=0.5;entryDx=0;entryDy=0;" parent="1" source="UQCRdyQTEKRcxBoQZrcR-43" target="UQCRdyQTEKRcxBoQZrcR-123" edge="1">
          <mxGeometry width="160" relative="1" as="geometry">
            <mxPoint x="1059.96" y="90.50600000000009" as="sourcePoint"/>
            <mxPoint x="1090" y="290.5" as="targetPoint"/>
          </mxGeometry>
        </mxCell>
        <mxCell id="icalWWF1daYBHl1hUkGM-19" value="Farm" style="swimlane;fontStyle=1;align=center;verticalAlign=top;childLayout=stackLayout;horizontal=1;startSize=26;horizontalStack=0;resizeParent=1;resizeParentMax=0;resizeLast=0;collapsible=1;marginBottom=0;" vertex="1" parent="1">
          <mxGeometry x="860" y="80.5" width="190" height="112" as="geometry"/>
        </mxCell>
        <mxCell id="icalWWF1daYBHl1hUkGM-20" value="- farm: List &lt;Farming&gt;" style="text;strokeColor=none;fillColor=none;align=left;verticalAlign=top;spacingLeft=4;spacingRight=4;overflow=hidden;rotatable=0;points=[[0,0.5],[1,0.5]];portConstraint=eastwest;" vertex="1" parent="icalWWF1daYBHl1hUkGM-19">
          <mxGeometry y="26" width="190" height="26" as="geometry"/>
        </mxCell>
        <mxCell id="icalWWF1daYBHl1hUkGM-23" value="" style="line;strokeWidth=1;fillColor=none;align=left;verticalAlign=middle;spacingTop=-1;spacingLeft=3;spacingRight=3;rotatable=0;labelPosition=right;points=[];portConstraint=eastwest;" vertex="1" parent="icalWWF1daYBHl1hUkGM-19">
          <mxGeometry y="52" width="190" height="8" as="geometry"/>
        </mxCell>
        <mxCell id="icalWWF1daYBHl1hUkGM-26" value="+ calcCrop(crop): double" style="text;strokeColor=none;fillColor=none;align=left;verticalAlign=top;spacingLeft=4;spacingRight=4;overflow=hidden;rotatable=0;points=[[0,0.5],[1,0.5]];portConstraint=eastwest;" vertex="1" parent="icalWWF1daYBHl1hUkGM-19">
          <mxGeometry y="60" width="190" height="26" as="geometry"/>
        </mxCell>
        <mxCell id="icalWWF1daYBHl1hUkGM-36" value="+ calcYieldCrop(crop): double" style="text;strokeColor=none;fillColor=none;align=left;verticalAlign=top;spacingLeft=4;spacingRight=4;overflow=hidden;rotatable=0;points=[[0,0.5],[1,0.5]];portConstraint=eastwest;" vertex="1" parent="icalWWF1daYBHl1hUkGM-19">
          <mxGeometry y="86" width="190" height="26" as="geometry"/>
        </mxCell>
        <mxCell id="icalWWF1daYBHl1hUkGM-35" value="" style="endArrow=diamondThin;endFill=1;endSize=24;html=1;exitX=0.5;exitY=0;exitDx=0;exitDy=0;entryX=0.496;entryY=0.868;entryDx=0;entryDy=0;entryPerimeter=0;" edge="1" parent="1" source="UQCRdyQTEKRcxBoQZrcR-118" target="icalWWF1daYBHl1hUkGM-36">
          <mxGeometry width="160" relative="1" as="geometry">
            <mxPoint x="1435.6800000000003" y="80.83400000000006" as="sourcePoint"/>
            <mxPoint x="1290" y="140.5" as="targetPoint"/>
          </mxGeometry>
        </mxCell>
        <mxCell id="icalWWF1daYBHl1hUkGM-38" value="&lt;h1&gt;Plot&lt;/h1&gt;&lt;p&gt;Built using the ideas from solid, it will help to calculate the area and perimeter of the plots.&amp;nbsp; I used the term plot instead of field.&amp;nbsp;&amp;nbsp;&lt;/p&gt;&lt;p&gt;Calculating the perimeter doubles as the amount of fence is needed.&amp;nbsp; Calculating the area gives you the amount of crop planted and fertilizer needed for that plot.&lt;/p&gt;&lt;p&gt;There are two main types of plots, each with their own sub-classes.&amp;nbsp; The last row of classes are built that way in case any extra methods need to be added (meaning the square and rectangle classes are separated and the circle and ellipses classes are separated).&lt;/p&gt;&lt;p&gt;&lt;br&gt;&lt;/p&gt;" style="text;html=1;strokeColor=none;fillColor=none;spacing=5;spacingTop=-20;whiteSpace=wrap;overflow=hidden;rounded=0;" vertex="1" parent="1">
          <mxGeometry x="75" y="147" width="305" height="243" as="geometry"/>
        </mxCell>
        <mxCell id="icalWWF1daYBHl1hUkGM-39" value="&lt;h1&gt;Yield&lt;/h1&gt;&lt;p&gt;The yield calculations are set up using the command design pattern.&amp;nbsp; To calculate the yield, you follow a similar process, but it is slightly different for each crop which makes the command pattern ideal.&amp;nbsp; For each crop, there is a different yield command class.&lt;/p&gt;&lt;p&gt;&lt;br&gt;&lt;/p&gt;&lt;p&gt;&lt;br&gt;&lt;/p&gt;" style="text;html=1;strokeColor=none;fillColor=none;spacing=5;spacingTop=-20;whiteSpace=wrap;overflow=hidden;rounded=0;" vertex="1" parent="1">
          <mxGeometry x="1118" y="606" width="602" height="114" as="geometry"/>
        </mxCell>
        <mxCell id="icalWWF1daYBHl1hUkGM-40" value="&lt;h1&gt;Farm&lt;/h1&gt;&lt;p&gt;Has a list of Farming, in other words it has a list of all the plots.&amp;nbsp; From this class, calcCrop will calculate how much of one crop you have planted.&amp;nbsp; Similarly, calcYield will calculate the total yield for one crop.&lt;/p&gt;&lt;p&gt;&lt;br&gt;&lt;/p&gt;" style="text;html=1;strokeColor=none;fillColor=none;spacing=5;spacingTop=-20;whiteSpace=wrap;overflow=hidden;rounded=0;" vertex="1" parent="1">
          <mxGeometry x="465" y="90" width="370" height="114" as="geometry"/>
        </mxCell>
        <mxCell id="icalWWF1daYBHl1hUkGM-41" value="&lt;h1&gt;Farming&lt;/h1&gt;&lt;p&gt;This class contains yield and plot, centralizing the main functions of the program.&amp;nbsp; Through this class, one can understand/have all the information about one plot, from the dimensions to the yield.&amp;nbsp; Multiple Farmings can be put together to create a Farm.&lt;/p&gt;" style="text;html=1;strokeColor=none;fillColor=none;spacing=5;spacingTop=-20;whiteSpace=wrap;overflow=hidden;rounded=0;" vertex="1" parent="1">
          <mxGeometry x="1140" y="135.5" width="370" height="114" as="geometry"/>
        </mxCell>
        <mxCell id="icalWWF1daYBHl1hUkGM-42" value="&lt;h1&gt;Other Creational Patterns&lt;/h1&gt;&lt;p&gt;While there are several other creational patterns that could potentially be used in this model, I chose not to.&amp;nbsp; But an abstract factory and singleton could definitely be used in another version of this model.&amp;nbsp; What creational patterns are used are up to the designer - whatever makes the best/simplest functioning deign will work.&lt;/p&gt;" style="text;html=1;strokeColor=none;fillColor=none;spacing=5;spacingTop=-20;whiteSpace=wrap;overflow=hidden;rounded=0;" vertex="1" parent="1">
          <mxGeometry x="1118" y="723" width="602" height="114" as="geometry"/>
        </mxCell>
      </root>
    </mxGraphModel>
  </diagram>
</mxfile>
